<?xml version="1.0" encoding="utf-8"?>
<!-- Generator: Adobe Illustrator 15.0.0, SVG Export Plug-In . SVG Version: 6.00 Build 0)  -->
<!DOCTYPE svg PUBLIC "-//W3C//DTD SVG 1.1//EN" "http://www.w3.org/Graphics/SVG/1.1/DTD/svg11.dtd">
<svg version="1.1" id="Layer_1" xmlns="http://www.w3.org/2000/svg" xmlns:xlink="http://www.w3.org/1999/xlink" x="0px" y="0px"
	 width="282.628px" height="301.661px" viewBox="7.518 -1.19 282.628 301.661" enable-background="new 7.518 -1.19 282.628 301.661"
	 xml:space="preserve">
<g>
	<g>
		<path d="M164.062,300.471h-29.779c-1.932,0-3.497-1.564-3.497-3.498v-77.301l-70.933,12.993c-1.251,0.231-2.527-0.238-3.333-1.22
			s-1.016-2.326-0.548-3.51L145.921,1.019c0.527-1.333,1.816-2.209,3.25-2.209c1.437,0,2.724,0.875,3.251,2.209l89.95,226.918
			c0.468,1.183,0.259,2.526-0.549,3.508s-2.082,1.451-3.332,1.221l-70.935-12.993v77.302
			C167.559,298.904,165.992,300.471,164.062,300.471z"/>
	</g>
	<path fill="#FFFFFF" d="M137.778,293.477h22.785v-78c0-1.037,0.461-2.021,1.26-2.687c0.798-0.666,1.849-0.94,2.869-0.753
		l68.854,12.611L149.171,11.797L64.798,224.648l68.854-12.611c1.019-0.188,2.072,0.088,2.869,0.753
		c0.798,0.665,1.257,1.649,1.257,2.687V293.477z"/>
	<path d="M148.834,132.236c-2.085,0-4.083,0.351-5.95,0.991c3.513,1.654,5.95,5.214,5.95,9.354c0,5.714-4.632,10.345-10.346,10.345
		c-3.2,0-6.059-1.451-7.957-3.733c-0.034,0.463-0.058,0.93-0.058,1.402c0,10.142,8.219,18.359,18.36,18.359
		c10.14,0,18.358-8.22,18.358-18.359S158.973,132.236,148.834,132.236z"/>
	<path d="M194.955,134.783c-33.809-20.58-77.971-16.309-106.398,11.728c33.165,32.706,88.065,32.706,121.228,0
		C205.27,142.062,200.327,138.151,194.955,134.783C194.948,134.779,200.322,138.148,194.955,134.783z M149.171,164.382
		c-18.208,0-36.071-6.33-50.165-17.871c16.785-13.747,83.544-13.746,100.331,0C185.243,158.052,167.38,164.382,149.171,164.382
		C130.691,164.382,167.652,164.382,149.171,164.382z"/>
	<g>
		<g>
			
				<path fill="none" stroke="#000000" stroke-width="12" stroke-linecap="round" stroke-linejoin="bevel" stroke-miterlimit="10" d="
				M110.385,175.831"/>
		</g>
		<g>
			
				<path fill="none" stroke="#000000" stroke-width="12" stroke-linecap="round" stroke-linejoin="bevel" stroke-miterlimit="10" d="
				M187.959,175.83"/>
		</g>
		<g>
			<path d="M149.171,187.562c-13.719,0-27.239-2.869-40.188-8.527c-1.77-0.773-2.577-2.836-1.804-4.605
				c0.774-1.771,2.836-2.578,4.605-1.804c12.06,5.271,24.637,7.942,37.386,7.942s25.329-2.672,37.387-7.942
				c1.77-0.774,3.832,0.033,4.604,1.804c0.774,1.771-0.032,3.831-1.802,4.605C176.411,184.693,162.891,187.562,149.171,187.562z"/>
		</g>
	</g>
	<g>
		<g>
			
				<path fill="none" stroke="#000000" stroke-width="12" stroke-linecap="round" stroke-linejoin="bevel" stroke-miterlimit="10" d="
				M125.026,192.314"/>
		</g>
		<g>
			
				<path fill="none" stroke="#000000" stroke-width="12" stroke-linecap="round" stroke-linejoin="bevel" stroke-miterlimit="10" d="
				M173.316,192.314"/>
		</g>
		<g>
			<path d="M149.171,198.837c-8.532,0-16.95-1.056-25.019-3.138c-1.869-0.479-2.995-2.389-2.513-4.258s2.39-2.996,4.259-2.515
				c7.5,1.935,15.33,2.915,23.272,2.915c7.943,0,15.773-0.98,23.271-2.915c1.869-0.481,3.779,0.644,4.262,2.515
				c0.482,1.869-0.645,3.777-2.514,4.258C166.121,197.781,157.704,198.837,149.171,198.837z"/>
		</g>
	</g>
	<g>
		<g>
			
				<path fill="none" stroke="#000000" stroke-width="12" stroke-linecap="round" stroke-linejoin="bevel" stroke-miterlimit="10" d="
				M180.359,117.012"/>
		</g>
		<g>
			
				<path fill="none" stroke="#000000" stroke-width="12" stroke-linecap="round" stroke-linejoin="bevel" stroke-miterlimit="10" d="
				M117.983,117.012"/>
		</g>
		<g>
			<path d="M117.986,120.511c-1.348,0-2.632-0.784-3.207-2.098c-0.774-1.77,0.034-3.832,1.803-4.605
				c10.498-4.588,21.464-6.915,32.589-6.915c11.127,0,22.089,2.326,32.588,6.914c1.769,0.774,2.576,2.836,1.804,4.606
				c-0.772,1.771-2.834,2.578-4.604,1.804c-9.609-4.2-19.634-6.329-29.788-6.329c-10.157,0-20.178,2.13-29.787,6.33
				C118.929,120.417,118.454,120.511,117.986,120.511z"/>
		</g>
	</g>
	<g>
		<g>
			
				<path fill="none" stroke="#000000" stroke-width="12" stroke-linecap="round" stroke-linejoin="bevel" stroke-miterlimit="10" d="
				M173.316,102.5"/>
		</g>
		<g>
			
				<path fill="none" stroke="#000000" stroke-width="12" stroke-linecap="round" stroke-linejoin="bevel" stroke-miterlimit="10" d="
				M125.026,102.5"/>
		</g>
		<g>
			<path d="M173.318,105.998c-0.287,0-0.582-0.036-0.875-0.111c-7.498-1.933-15.33-2.914-23.272-2.914
				c-7.943,0-15.772,0.98-23.272,2.914c-1.871,0.482-3.778-0.643-4.26-2.513c-0.482-1.871,0.645-3.778,2.514-4.259
				c8.07-2.082,16.487-3.136,25.019-3.136c8.531,0,16.949,1.055,25.02,3.136c1.871,0.481,2.994,2.388,2.515,4.259
				C176.297,104.951,174.876,105.998,173.318,105.998z"/>
		</g>
	</g>
	<g>
		<g>
			<path d="M82.117,86.138c-0.895,0-1.79-0.341-2.473-1.024l-33.389-33.39c-1.365-1.365-1.365-3.579,0-4.945
				c1.366-1.366,3.58-1.365,4.946,0l33.388,33.39c1.366,1.365,1.366,3.579,0,4.945C83.907,85.797,83.012,86.138,82.117,86.138z"/>
		</g>
		<g>
			<path d="M57.081,128.602c-0.3,0-0.604-0.039-0.907-0.12l-45.61-12.223c-1.865-0.5-2.972-2.418-2.472-4.284
				c0.5-1.865,2.417-2.969,4.283-2.472l45.61,12.222c1.865,0.5,2.972,2.418,2.472,4.284
				C60.038,127.571,58.625,128.602,57.081,128.602z"/>
		</g>
		<g>
			<path d="M11.014,190.115c-1.543,0-2.957-1.031-3.376-2.596c-0.5-1.865,0.608-3.781,2.473-4.281l45.61-12.221
				c1.865-0.5,3.782,0.606,4.282,2.474c0.5,1.864-0.607,3.782-2.473,4.282l-45.609,12.221
				C11.618,190.075,11.314,190.115,11.014,190.115z"/>
		</g>
		<g>
			<path d="M101.98,71.188c-1.209,0-2.384-0.627-3.032-1.75L86.997,48.736c-0.965-1.672-0.393-3.811,1.28-4.777
				c1.672-0.965,3.812-0.392,4.777,1.28l11.952,20.702c0.966,1.673,0.393,3.812-1.28,4.777
				C103.176,71.036,102.574,71.188,101.98,71.188z"/>
		</g>
		<g>
			<path d="M66.799,105.723c-0.594,0-1.194-0.151-1.745-0.469L44.352,93.3c-1.672-0.965-2.245-3.104-1.28-4.777
				c0.965-1.672,3.105-2.246,4.777-1.28l20.702,11.953c1.673,0.965,2.246,3.104,1.28,4.777
				C69.184,105.096,68.008,105.723,66.799,105.723z"/>
		</g>
		<g>
			<path d="M53.608,153.218L53.608,153.218H29.703c-1.932,0-3.497-1.565-3.497-3.497c0-1.932,1.565-3.497,3.497-3.497l0,0h23.905
				c1.932,0,3.497,1.565,3.497,3.497C57.105,151.652,55.54,153.218,53.608,153.218z"/>
		</g>
	</g>
	<g>
		<g>
			<path d="M286.197,191.805c-0.301,0-0.604-0.039-0.906-0.119l-45.609-12.223c-1.867-0.499-2.973-2.418-2.474-4.281
				c0.501-1.867,2.417-2.972,4.282-2.475l45.609,12.221c1.867,0.502,2.973,2.42,2.473,4.284
				C289.152,190.771,287.741,191.805,286.197,191.805z"/>
		</g>
		<g>
			<path d="M216.784,87.375c-0.896,0-1.788-0.341-2.474-1.024c-1.365-1.366-1.365-3.58,0-4.945l33.391-33.39
				c1.365-1.366,3.58-1.366,4.945,0c1.367,1.366,1.367,3.58,0,4.946l-33.39,33.388C218.576,87.034,217.68,87.375,216.784,87.375z"/>
		</g>
		<g>
			<path d="M267.963,154.966h-23.904c-1.931,0-3.498-1.565-3.498-3.497c0-1.931,1.567-3.497,3.498-3.497h23.904
				c1.934,0,3.498,1.566,3.498,3.497C271.461,153.4,269.896,154.966,267.963,154.966z"/>
		</g>
		<g>
			<path d="M231.741,107.237c-1.208,0-2.386-0.627-3.031-1.75c-0.966-1.673-0.396-3.812,1.28-4.777l20.701-11.953
				c1.672-0.965,3.812-0.392,4.775,1.281c0.967,1.672,0.395,3.811-1.279,4.776l-20.699,11.953
				C232.936,107.085,232.336,107.237,231.741,107.237z"/>
		</g>
		<g>
			<path d="M197.199,72.062c-0.592,0-1.194-0.15-1.743-0.468c-1.675-0.967-2.248-3.105-1.283-4.778l11.955-20.703
				c0.966-1.672,3.104-2.246,4.778-1.28c1.672,0.967,2.244,3.105,1.277,4.777L200.23,70.313
				C199.585,71.434,198.408,72.062,197.199,72.062z"/>
		</g>
		<g>
			<path d="M241.037,130.292c-1.544,0-2.957-1.031-3.377-2.593c-0.499-1.865,0.607-3.782,2.474-4.284l45.61-12.221
				c1.863-0.499,3.783,0.607,4.281,2.473c0.502,1.865-0.605,3.782-2.471,4.284l-45.609,12.221
				C241.641,130.252,241.336,130.292,241.037,130.292z"/>
		</g>
	</g>
</g>
</svg>
