<?xml version="1.0" encoding="utf-8"?>
<!-- Generator: Adobe Illustrator 15.0.0, SVG Export Plug-In . SVG Version: 6.00 Build 0)  -->
<!DOCTYPE svg PUBLIC "-//W3C//DTD SVG 1.1//EN" "http://www.w3.org/Graphics/SVG/1.1/DTD/svg11.dtd">
<svg version="1.1" id="Layer_1" xmlns="http://www.w3.org/2000/svg" xmlns:xlink="http://www.w3.org/1999/xlink" x="0px" y="0px"
	 width="282.628px" height="302.852px" viewBox="0 0 282.628 302.852" enable-background="new 0 0 282.628 302.852"
	 xml:space="preserve">
<path fill="#FFFFFF" d="M157.173,213.227c-1.021-0.188-2.07,0.086-2.867,0.752c-0.801,0.666-1.262,1.65-1.262,2.688v78H130.26v-78
	c0-1.038-0.459-2.021-1.257-2.688c-0.797-0.664-1.85-0.939-2.869-0.752l-68.854,12.61l84.374-212.852l84.375,212.852
	L157.173,213.227z"/>
<g>
	<path fill="#2A186A" d="M234.855,229.127L144.904,2.209C144.378,0.875,143.091,0,141.654,0c-1.435,0-2.723,0.876-3.25,2.209
		L48.455,229.125c-0.468,1.185-0.258,2.527,0.548,3.51c0.806,0.981,2.082,1.451,3.333,1.22l70.933-12.992v77.302
		c0,1.934,1.565,3.498,3.497,3.498h29.778c1.931,0,3.498-1.567,3.494-3.496v-77.304l70.937,12.994
		c1.25,0.229,2.522-0.24,3.332-1.222C235.113,231.652,235.322,230.309,234.855,229.127z M157.173,213.227
		c-1.021-0.188-2.07,0.086-2.867,0.752c-0.801,0.666-1.262,1.65-1.262,2.688v78H130.26v-78c0-1.038-0.459-2.021-1.257-2.688
		c-0.797-0.664-1.85-0.939-2.869-0.752l-68.854,12.61l84.374-212.852l84.375,212.852L157.173,213.227z"/>
	<path fill="#2A186A" d="M141.316,133.426c-2.084,0-4.082,0.351-5.949,0.991c3.513,1.653,5.949,5.214,5.949,9.354
		c0,5.714-4.631,10.345-10.346,10.345c-3.2,0-6.059-1.45-7.957-3.732c-0.034,0.463-0.058,0.93-0.058,1.401
		c0,10.143,8.219,18.359,18.36,18.359c10.14,0,18.356-8.22,18.356-18.359C159.673,141.645,151.457,133.426,141.316,133.426z"/>
	<path fill="#2A186A" d="M187.437,135.972c-33.809-20.58-77.971-16.309-106.397,11.728c33.165,32.707,88.065,32.707,121.228,0
		C197.751,143.252,192.81,139.341,187.437,135.972C187.431,135.969,192.804,139.338,187.437,135.972z M141.654,165.57
		c-18.208,0-36.071-6.33-50.166-17.871c16.785-13.746,83.545-13.745,100.332,0C177.726,159.24,159.863,165.57,141.654,165.57
		C123.173,165.57,160.134,165.57,141.654,165.57z"/>
	<g>
		<g>
			
				<path fill="#2A186A" stroke="#000000" stroke-width="12" stroke-linecap="round" stroke-linejoin="bevel" stroke-miterlimit="10" d="
				M102.867,177.02"/>
		</g>
		<g>
			
				<path fill="#2A186A" stroke="#000000" stroke-width="12" stroke-linecap="round" stroke-linejoin="bevel" stroke-miterlimit="10" d="
				M180.441,177.02"/>
		</g>
		<g>
			<path fill="#2A186A" d="M141.654,188.752c-13.719,0-27.239-2.869-40.188-8.526c-1.77-0.772-2.577-2.836-1.804-4.604
				c0.774-1.771,2.836-2.578,4.605-1.806c12.06,5.271,24.637,7.942,37.385,7.942c12.75,0,25.33-2.672,37.389-7.942
				c1.771-0.772,3.832,0.033,4.604,1.806c0.773,1.771-0.033,3.829-1.803,4.604C168.894,185.883,155.375,188.752,141.654,188.752z"/>
		</g>
	</g>
	<g>
		<g>
			
				<path fill="#2A186A" stroke="#000000" stroke-width="12" stroke-linecap="round" stroke-linejoin="bevel" stroke-miterlimit="10" d="
				M117.508,193.504"/>
		</g>
		<g>
			
				<path fill="#2A186A" stroke="#000000" stroke-width="12" stroke-linecap="round" stroke-linejoin="bevel" stroke-miterlimit="10" d="
				M165.798,193.504"/>
		</g>
		<g>
			<path fill="#2A186A" d="M141.654,200.025c-8.532,0-16.95-1.055-25.02-3.137c-1.869-0.479-2.995-2.39-2.513-4.259
				c0.482-1.868,2.39-2.996,4.259-2.516c7.5,1.936,15.33,2.914,23.271,2.914c7.942,0,15.772-0.979,23.271-2.914
				c1.869-0.48,3.779,0.645,4.263,2.516c0.481,1.869-0.646,3.775-2.515,4.259C158.603,198.971,150.187,200.025,141.654,200.025z"/>
		</g>
	</g>
	<g>
		<g>
			
				<path fill="#2A186A" stroke="#000000" stroke-width="12" stroke-linecap="round" stroke-linejoin="bevel" stroke-miterlimit="10" d="
				M172.841,118.202"/>
		</g>
		<g>
			
				<path fill="#2A186A" stroke="#000000" stroke-width="12" stroke-linecap="round" stroke-linejoin="bevel" stroke-miterlimit="10" d="
				M110.465,118.202"/>
		</g>
		<g>
			<path fill="#2A186A" d="M110.468,121.7c-1.348,0-2.632-0.783-3.207-2.098c-0.774-1.77,0.034-3.832,1.803-4.604
				c10.498-4.588,21.464-6.915,32.589-6.915c11.127,0,22.089,2.325,32.589,6.914c1.768,0.773,2.575,2.836,1.803,4.605
				c-0.771,1.771-2.834,2.578-4.604,1.804c-9.607-4.199-19.633-6.328-29.787-6.328c-10.157,0-20.178,2.13-29.788,6.329
				C111.412,121.606,110.937,121.7,110.468,121.7z"/>
		</g>
	</g>
	<g>
		<g>
			
				<path fill="#2A186A" stroke="#000000" stroke-width="12" stroke-linecap="round" stroke-linejoin="bevel" stroke-miterlimit="10" d="
				M165.798,103.689"/>
		</g>
		<g>
			
				<path fill="#2A186A" stroke="#000000" stroke-width="12" stroke-linecap="round" stroke-linejoin="bevel" stroke-miterlimit="10" d="
				M117.508,103.689"/>
		</g>
		<g>
			<path fill="#2A186A" d="M165.8,107.187c-0.287,0-0.582-0.036-0.875-0.11c-7.498-1.934-15.33-2.914-23.271-2.914
				c-7.943,0-15.772,0.979-23.272,2.914c-1.871,0.481-3.778-0.644-4.26-2.514c-0.482-1.871,0.645-3.777,2.514-4.259
				c8.07-2.082,16.487-3.136,25.019-3.136c8.532,0,16.949,1.055,25.021,3.136c1.871,0.481,2.994,2.388,2.516,4.259
				C168.779,106.14,167.359,107.187,165.8,107.187z"/>
		</g>
	</g>
	<g>
		<g>
			<path fill="#2A186A" d="M74.6,87.328c-0.895,0-1.79-0.342-2.473-1.024l-33.389-33.39c-1.365-1.365-1.365-3.579,0-4.945
				c1.366-1.366,3.58-1.365,4.946,0l33.388,33.39c1.366,1.365,1.366,3.579,0,4.945C76.39,86.986,75.495,87.328,74.6,87.328z"/>
		</g>
		<g>
			<path fill="#2A186A" d="M49.563,129.792c-0.3,0-0.604-0.039-0.907-0.12l-45.61-12.224c-1.865-0.5-2.972-2.418-2.472-4.283
				s2.417-2.97,4.283-2.473l45.61,12.223c1.865,0.5,2.972,2.418,2.472,4.283C52.521,128.76,51.107,129.792,49.563,129.792z"/>
		</g>
		<g>
			<path fill="#2A186A" d="M3.497,191.305c-1.543,0-2.957-1.031-3.376-2.597c-0.5-1.865,0.608-3.781,2.473-4.281l45.61-12.221
				c1.865-0.5,3.782,0.605,4.282,2.474c0.5,1.864-0.607,3.782-2.473,4.282l-45.61,12.222C4.101,191.264,3.796,191.305,3.497,191.305
				z"/>
		</g>
		<g>
			<path fill="#2A186A" d="M94.462,72.378c-1.209,0-2.384-0.627-3.032-1.75L79.479,49.926c-0.965-1.672-0.393-3.812,1.28-4.777
				c1.672-0.965,3.812-0.392,4.777,1.28l11.952,20.702c0.966,1.673,0.393,3.812-1.28,4.776
				C95.658,72.225,95.057,72.378,94.462,72.378z"/>
		</g>
		<g>
			<path fill="#2A186A" d="M59.281,106.913c-0.594,0-1.194-0.151-1.745-0.47L36.834,94.489c-1.672-0.965-2.245-3.104-1.28-4.776
				c0.965-1.672,3.105-2.246,4.777-1.28l20.702,11.953c1.673,0.965,2.246,3.104,1.28,4.777
				C61.667,106.286,60.49,106.913,59.281,106.913z"/>
		</g>
		<g>
			<path fill="#2A186A" d="M46.09,154.406L46.09,154.406H22.186c-1.932,0-3.497-1.563-3.497-3.495c0-1.933,1.565-3.497,3.497-3.497
				l0,0H46.09c1.932,0,3.497,1.564,3.497,3.497C49.587,152.842,48.022,154.406,46.09,154.406z"/>
		</g>
	</g>
	<g>
		<g>
			<path fill="#2A186A" d="M278.679,192.995c-0.301,0-0.604-0.039-0.906-0.119l-45.607-12.224c-1.867-0.5-2.975-2.418-2.475-4.28
				c0.5-1.867,2.416-2.974,4.281-2.476l45.609,12.221c1.867,0.503,2.973,2.421,2.473,4.283
				C281.634,191.961,280.224,192.995,278.679,192.995z"/>
		</g>
		<g>
			<path fill="#2A186A" d="M209.267,88.564c-0.896,0-1.789-0.341-2.475-1.023c-1.365-1.366-1.365-3.58,0-4.945l33.391-33.39
				c1.365-1.366,3.58-1.366,4.945,0c1.367,1.365,1.367,3.58,0,4.945L211.738,87.54C211.058,88.223,210.164,88.564,209.267,88.564z"
				/>
		</g>
		<g>
			<path fill="#2A186A" d="M260.445,156.154h-23.902c-1.932,0-3.498-1.563-3.498-3.496c0-1.931,1.566-3.496,3.498-3.496h23.902
				c1.936,0,3.498,1.565,3.498,3.496C263.943,154.59,262.378,156.154,260.445,156.154z"/>
		</g>
		<g>
			<path fill="#2A186A" d="M224.224,108.427c-1.209,0-2.387-0.627-3.031-1.75c-0.967-1.673-0.396-3.812,1.279-4.777l20.701-11.953
				c1.672-0.965,3.812-0.392,4.775,1.281c0.967,1.672,0.395,3.812-1.279,4.776l-20.699,11.953
				C225.417,108.274,224.818,108.427,224.224,108.427z"/>
		</g>
		<g>
			<path fill="#2A186A" d="M189.681,73.252c-0.592,0-1.193-0.15-1.742-0.469c-1.676-0.967-2.248-3.104-1.283-4.777l11.955-20.703
				c0.967-1.672,3.104-2.246,4.777-1.28c1.672,0.967,2.244,3.105,1.277,4.777l-11.953,20.703
				C192.068,72.624,190.89,73.252,189.681,73.252z"/>
		</g>
		<g>
			<path fill="#2A186A" d="M233.519,131.481c-1.543,0-2.957-1.031-3.377-2.593c-0.498-1.865,0.607-3.782,2.475-4.284l45.609-12.221
				c1.863-0.499,3.783,0.606,4.281,2.473c0.502,1.865-0.605,3.782-2.471,4.284l-45.609,12.221
				C234.125,131.441,233.818,131.481,233.519,131.481z"/>
		</g>
	</g>
</g>
</svg>
