<?xml version="1.0" encoding="utf-8"?>
<!-- Generator: Adobe Illustrator 15.0.0, SVG Export Plug-In . SVG Version: 6.00 Build 0)  -->
<!DOCTYPE svg PUBLIC "-//W3C//DTD SVG 1.1//EN" "http://www.w3.org/Graphics/SVG/1.1/DTD/svg11.dtd">
<svg version="1.1" id="Layer_1" xmlns="http://www.w3.org/2000/svg" xmlns:xlink="http://www.w3.org/1999/xlink" x="0px" y="0px"
	 width="282.628px" height="303px" viewBox="0 -3.504 282.628 303" enable-background="new 0 -3.504 282.628 303"
	 xml:space="preserve">
<g>
	<g>
		<path d="M156.544,298.157h-29.779c-1.932,0-3.497-1.564-3.497-3.498v-77.301L52.335,230.35c-1.251,0.231-2.527-0.238-3.333-1.22
			s-1.016-2.325-0.548-3.51L138.404-1.295c0.527-1.333,1.815-2.209,3.25-2.209c1.437,0,2.724,0.875,3.25,2.209l89.951,226.918
			c0.467,1.183,0.258,2.526-0.549,3.508c-0.809,0.981-2.082,1.451-3.332,1.222l-70.936-12.994v77.303
			C160.042,296.589,158.474,298.157,156.544,298.157z"/>
	</g>
	<path fill="#FFFFFF" d="M130.26,291.163h22.785v-78c0-1.037,0.461-2.021,1.261-2.688c0.797-0.666,1.848-0.939,2.868-0.752
		l68.854,12.61L141.654,9.482L57.28,222.333l68.854-12.61c1.019-0.188,2.072,0.088,2.869,0.752c0.798,0.666,1.257,1.649,1.257,2.688
		V291.163z"/>
	<path d="M141.316,129.921c-2.084,0-4.082,0.351-5.949,0.991c3.513,1.654,5.949,5.214,5.949,9.354
		c0,5.714-4.631,10.345-10.346,10.345c-3.2,0-6.059-1.451-7.957-3.733c-0.034,0.463-0.058,0.93-0.058,1.402
		c0,10.142,8.219,18.359,18.36,18.359c10.14,0,18.357-8.22,18.357-18.359C159.673,138.142,151.456,129.921,141.316,129.921z"/>
	<path d="M187.437,132.469c-33.809-20.58-77.971-16.309-106.397,11.728c33.165,32.707,88.065,32.707,121.228,0
		C197.752,139.748,192.81,135.836,187.437,132.469C187.431,132.464,192.804,135.833,187.437,132.469z M141.654,162.067
		c-18.208,0-36.071-6.33-50.166-17.871c16.785-13.747,83.544-13.746,100.332,0C177.726,155.737,159.863,162.067,141.654,162.067
		C123.173,162.067,160.134,162.067,141.654,162.067z"/>
	<g>
		<g>
			
				<path fill="none" stroke="#000000" stroke-width="12" stroke-linecap="round" stroke-linejoin="bevel" stroke-miterlimit="10" d="
				M102.867,173.516"/>
		</g>
		<g>
			
				<path fill="none" stroke="#000000" stroke-width="12" stroke-linecap="round" stroke-linejoin="bevel" stroke-miterlimit="10" d="
				M180.441,173.516"/>
		</g>
		<g>
			<path d="M141.654,185.248c-13.719,0-27.239-2.869-40.188-8.526c-1.77-0.773-2.577-2.836-1.804-4.605
				c0.774-1.771,2.836-2.578,4.605-1.805c12.06,5.271,24.637,7.942,37.385,7.942c12.75,0,25.33-2.672,37.388-7.942
				c1.771-0.773,3.832,0.033,4.604,1.805c0.773,1.771-0.033,3.83-1.803,4.605C168.894,182.378,155.374,185.248,141.654,185.248z"/>
		</g>
	</g>
	<g>
		<g>
			
				<path fill="none" stroke="#000000" stroke-width="12" stroke-linecap="round" stroke-linejoin="bevel" stroke-miterlimit="10" d="
				M117.508,190"/>
		</g>
		<g>
			
				<path fill="none" stroke="#000000" stroke-width="12" stroke-linecap="round" stroke-linejoin="bevel" stroke-miterlimit="10" d="
				M165.798,190"/>
		</g>
		<g>
			<path d="M141.654,196.522c-8.532,0-16.95-1.055-25.02-3.137c-1.869-0.479-2.995-2.39-2.513-4.259
				c0.482-1.868,2.39-2.996,4.259-2.515c7.5,1.935,15.33,2.914,23.271,2.914c7.943,0,15.773-0.979,23.271-2.914
				c1.869-0.481,3.779,0.644,4.262,2.515c0.482,1.869-0.645,3.776-2.514,4.259C158.603,195.467,150.187,196.522,141.654,196.522z"/>
		</g>
	</g>
	<g>
		<g>
			
				<path fill="none" stroke="#000000" stroke-width="12" stroke-linecap="round" stroke-linejoin="bevel" stroke-miterlimit="10" d="
				M172.841,114.698"/>
		</g>
		<g>
			
				<path fill="none" stroke="#000000" stroke-width="12" stroke-linecap="round" stroke-linejoin="bevel" stroke-miterlimit="10" d="
				M110.465,114.698"/>
		</g>
		<g>
			<path d="M110.468,118.196c-1.348,0-2.632-0.784-3.207-2.098c-0.774-1.77,0.034-3.832,1.803-4.605
				c10.498-4.588,21.464-6.915,32.589-6.915c11.127,0,22.088,2.326,32.588,6.914c1.769,0.774,2.576,2.836,1.804,4.606
				c-0.772,1.771-2.834,2.578-4.604,1.804c-9.608-4.2-19.633-6.329-29.787-6.329c-10.157,0-20.178,2.13-29.788,6.33
				C111.412,118.103,110.937,118.196,110.468,118.196z"/>
		</g>
	</g>
	<g>
		<g>
			
				<path fill="none" stroke="#000000" stroke-width="12" stroke-linecap="round" stroke-linejoin="bevel" stroke-miterlimit="10" d="
				M165.798,100.186"/>
		</g>
		<g>
			
				<path fill="none" stroke="#000000" stroke-width="12" stroke-linecap="round" stroke-linejoin="bevel" stroke-miterlimit="10" d="
				M117.508,100.186"/>
		</g>
		<g>
			<path d="M165.8,103.684c-0.287,0-0.582-0.036-0.875-0.111c-7.498-1.933-15.33-2.914-23.271-2.914
				c-7.943,0-15.772,0.98-23.272,2.914c-1.871,0.482-3.778-0.643-4.26-2.513c-0.482-1.871,0.645-3.778,2.514-4.259
				c8.07-2.082,16.487-3.136,25.019-3.136s16.949,1.055,25.021,3.136c1.871,0.481,2.994,2.388,2.515,4.259
				C168.779,102.637,167.359,103.684,165.8,103.684z"/>
		</g>
	</g>
	<g>
		<g>
			<path d="M74.6,83.824c-0.895,0-1.79-0.341-2.473-1.024L38.737,49.41c-1.365-1.365-1.365-3.579,0-4.945
				c1.366-1.366,3.58-1.365,4.946,0l33.388,33.39c1.366,1.365,1.366,3.579,0,4.945C76.39,83.482,75.495,83.824,74.6,83.824z"/>
		</g>
		<g>
			<path d="M49.563,126.288c-0.3,0-0.604-0.039-0.907-0.12l-45.61-12.223c-1.865-0.5-2.972-2.418-2.472-4.284
				c0.5-1.865,2.417-2.969,4.283-2.472l45.61,12.222c1.865,0.5,2.972,2.418,2.472,4.284
				C52.521,125.256,51.107,126.288,49.563,126.288z"/>
		</g>
		<g>
			<path d="M3.497,187.801c-1.543,0-2.957-1.031-3.376-2.597c-0.5-1.865,0.608-3.781,2.473-4.281l45.61-12.221
				c1.865-0.5,3.782,0.606,4.282,2.474c0.5,1.864-0.607,3.782-2.473,4.282L4.403,187.68C4.101,187.76,3.796,187.801,3.497,187.801z"
				/>
		</g>
		<g>
			<path d="M94.462,68.874c-1.209,0-2.384-0.627-3.032-1.75L79.479,46.421c-0.965-1.672-0.393-3.811,1.28-4.777
				c1.672-0.965,3.812-0.392,4.777,1.28l11.952,20.702c0.966,1.673,0.393,3.812-1.28,4.777
				C95.658,68.722,95.057,68.874,94.462,68.874z"/>
		</g>
		<g>
			<path d="M59.281,103.409c-0.594,0-1.194-0.151-1.745-0.469L36.834,90.985c-1.672-0.965-2.245-3.104-1.28-4.777
				c0.965-1.672,3.105-2.246,4.777-1.28l20.702,11.953c1.673,0.965,2.246,3.104,1.28,4.777
				C61.667,102.782,60.49,103.409,59.281,103.409z"/>
		</g>
		<g>
			<path d="M46.09,150.903L46.09,150.903H22.186c-1.932,0-3.497-1.564-3.497-3.496c0-1.932,1.565-3.497,3.497-3.497l0,0H46.09
				c1.932,0,3.497,1.565,3.497,3.497C49.587,149.337,48.022,150.903,46.09,150.903z"/>
		</g>
	</g>
	<g>
		<g>
			<path d="M278.679,189.491c-0.301,0-0.604-0.039-0.906-0.119l-45.608-12.223c-1.867-0.5-2.974-2.418-2.474-4.281
				c0.5-1.867,2.416-2.973,4.281-2.475l45.609,12.221c1.867,0.502,2.973,2.42,2.473,4.283
				C281.634,188.457,280.224,189.491,278.679,189.491z"/>
		</g>
		<g>
			<path d="M209.267,85.061c-0.896,0-1.789-0.341-2.475-1.024c-1.365-1.366-1.365-3.58,0-4.945l33.391-33.39
				c1.365-1.366,3.58-1.366,4.945,0c1.367,1.366,1.367,3.58,0,4.946l-33.391,33.388C211.058,84.72,210.163,85.061,209.267,85.061z"
				/>
		</g>
		<g>
			<path d="M260.445,152.651h-23.903c-1.931,0-3.498-1.564-3.498-3.496c0-1.931,1.567-3.497,3.498-3.497h23.903
				c1.935,0,3.498,1.566,3.498,3.497C263.943,151.085,262.378,152.651,260.445,152.651z"/>
		</g>
		<g>
			<path d="M224.224,104.922c-1.209,0-2.387-0.627-3.031-1.75c-0.967-1.673-0.396-3.812,1.279-4.777l20.701-11.953
				c1.672-0.965,3.812-0.392,4.775,1.281c0.967,1.672,0.395,3.811-1.279,4.776l-20.699,11.953
				C225.418,104.771,224.818,104.922,224.224,104.922z"/>
		</g>
		<g>
			<path d="M189.681,69.748c-0.592,0-1.193-0.15-1.742-0.468c-1.676-0.967-2.248-3.105-1.283-4.778l11.955-20.703
				c0.966-1.672,3.104-2.246,4.777-1.28c1.672,0.967,2.244,3.105,1.277,4.777l-11.953,20.703
				C192.068,69.12,190.89,69.748,189.681,69.748z"/>
		</g>
		<g>
			<path d="M233.519,127.978c-1.543,0-2.957-1.031-3.377-2.593c-0.498-1.865,0.607-3.782,2.475-4.284l45.609-12.221
				c1.863-0.499,3.783,0.607,4.281,2.473c0.502,1.865-0.605,3.782-2.471,4.284l-45.609,12.221
				C234.124,127.938,233.818,127.978,233.519,127.978z"/>
		</g>
	</g>
</g>
</svg>
