<?xml version="1.0" encoding="utf-8"?>
<!-- Generator: Adobe Illustrator 16.0.0, SVG Export Plug-In . SVG Version: 6.00 Build 0)  -->
<!DOCTYPE svg PUBLIC "-//W3C//DTD SVG 1.1//EN" "http://www.w3.org/Graphics/SVG/1.1/DTD/svg11.dtd">
<svg version="1.1" id="Layer_1" xmlns="http://www.w3.org/2000/svg" xmlns:xlink="http://www.w3.org/1999/xlink" x="0px" y="0px"
	 width="40px" height="40px" viewBox="0 0 40 40" enable-background="new 0 0 40 40" xml:space="preserve">
<g>
	<path fill="#FFFFFF" d="M19.994,28.171c-7.125,0-13.856-2.895-19.027-8.166c5.172-5.271,11.903-8.166,19.027-8.166
		c7.124,0,13.855,2.895,19.026,8.166C33.852,25.276,27.12,28.171,19.994,28.171z"/>
	<path fill="#0000FF" d="M19.994,12.538c6.711,0,13.066,2.642,18.037,7.467c-4.969,4.826-11.324,7.467-18.037,7.467
		c-6.712,0-13.068-2.642-18.037-7.467C6.928,15.179,13.283,12.538,19.994,12.538 M19.994,11.142c-7.792,0-14.853,3.384-19.994,8.864
		c5.141,5.482,12.202,8.864,19.994,8.864c7.792,0,14.854-3.382,19.994-8.864C34.848,14.525,27.786,11.142,19.994,11.142
		L19.994,11.142z"/>
</g>
<path fill="none" stroke="#0000FF" stroke-width="1.3965" stroke-linecap="round" stroke-linejoin="round" stroke-miterlimit="10" d="
	M19.882,14.916c-0.687,0-1.346,0.125-1.962,0.354c1.159,0.59,1.962,1.859,1.962,3.335c0,2.036-1.528,3.688-3.412,3.688
	c-1.055,0-1.998-0.519-2.625-1.332c-0.011,0.166-0.019,0.332-0.019,0.501c0,3.614,2.711,6.546,6.055,6.546
	c3.346,0,6.055-2.932,6.055-6.546C25.938,17.847,23.229,14.916,19.882,14.916z"/>
<g>
	<g>
		<path fill="#0000FF" d="M19.994,12.538c5.265,0,10.319,1.631,14.655,4.671c-4.817-0.936-9.727-1.408-14.655-1.408
			c-4.927,0-9.836,0.473-14.656,1.408C9.674,14.17,14.73,12.538,19.994,12.538 M19.994,11.142c-7.719,0-14.717,3.322-19.847,8.711
			c6.351-1.732,12.999-2.655,19.847-2.655s13.498,0.922,19.846,2.654C34.712,14.463,27.712,11.142,19.994,11.142L19.994,11.142z"/>
	</g>
</g>
<g>
	<path fill="#6498FF" d="M2.535,18.525c4.933-4.329,11.043-6.686,17.459-6.686c6.416,0,12.526,2.356,17.458,6.685
		C31.744,17.18,25.884,16.5,19.994,16.5C14.107,16.5,8.247,17.18,2.535,18.525z"/>
	<g>
		<path fill="#0000FF" d="M19.994,12.538c5.265,0,10.319,1.631,14.655,4.671c-4.817-0.936-9.727-1.408-14.655-1.408
			c-4.927,0-9.836,0.473-14.656,1.408C9.674,14.17,14.73,12.538,19.994,12.538 M19.994,11.142c-7.719,0-14.717,3.322-19.847,8.711
			c6.351-1.732,12.999-2.655,19.847-2.655s13.498,0.922,19.846,2.654C34.712,14.463,27.712,11.142,19.994,11.142L19.994,11.142z"/>
	</g>
</g>
<g>
	
		<path fill="none" stroke="#6498FF" stroke-width="1.3965" stroke-linecap="round" stroke-linejoin="round" stroke-miterlimit="10" d="
		M7.2,29.761"/>
	
		<path fill="none" stroke="#6498FF" stroke-width="1.3965" stroke-linecap="round" stroke-linejoin="round" stroke-miterlimit="10" d="
		M32.788,29.761"/>
	
		<path fill="none" stroke="#6498FF" stroke-width="1.3965" stroke-linecap="round" stroke-linejoin="round" stroke-miterlimit="10" d="
		M32.788,29.761c-4.028,1.903-8.328,2.937-12.794,2.937S11.229,31.664,7.2,29.761"/>
</g>
<g>
	
		<path fill="none" stroke="#0000FF" stroke-width="1.3965" stroke-linecap="round" stroke-linejoin="bevel" stroke-miterlimit="10" d="
		M7.2,30.459"/>
	
		<path fill="none" stroke="#0000FF" stroke-width="1.3965" stroke-linecap="round" stroke-linejoin="bevel" stroke-miterlimit="10" d="
		M32.788,30.459"/>
	
		<path fill="none" stroke="#0000FF" stroke-width="1.3965" stroke-linecap="round" stroke-linejoin="bevel" stroke-miterlimit="10" d="
		M32.788,30.459c-4.028,1.903-8.328,2.937-12.794,2.937S11.229,32.362,7.2,30.459"/>
</g>
<g>
	
		<path fill="none" stroke="#6498FF" stroke-width="1.3965" stroke-linecap="round" stroke-linejoin="round" stroke-miterlimit="10" d="
		M12.03,35.637"/>
	
		<path fill="none" stroke="#6498FF" stroke-width="1.3965" stroke-linecap="round" stroke-linejoin="round" stroke-miterlimit="10" d="
		M27.959,35.637"/>
	
		<path fill="none" stroke="#6498FF" stroke-width="1.3965" stroke-linecap="round" stroke-linejoin="round" stroke-miterlimit="10" d="
		M27.959,35.637c-2.508,0.7-5.184,1.078-7.965,1.078c-2.78,0-5.457-0.378-7.964-1.078"/>
</g>
<g>
	
		<path fill="none" stroke="#0000FF" stroke-width="1.3965" stroke-linecap="round" stroke-linejoin="bevel" stroke-miterlimit="10" d="
		M12.03,36.335"/>
	
		<path fill="none" stroke="#0000FF" stroke-width="1.3965" stroke-linecap="round" stroke-linejoin="bevel" stroke-miterlimit="10" d="
		M27.959,36.335"/>
	
		<path fill="none" stroke="#0000FF" stroke-width="1.3965" stroke-linecap="round" stroke-linejoin="bevel" stroke-miterlimit="10" d="
		M27.959,36.335c-2.508,0.7-5.184,1.079-7.965,1.079c-2.78,0-5.457-0.379-7.964-1.079"/>
</g>
<g>
	
		<path fill="none" stroke="#6498FF" stroke-width="1.3965" stroke-linecap="round" stroke-linejoin="round" stroke-miterlimit="10" d="
		M30.282,8.791"/>
	
		<path fill="none" stroke="#6498FF" stroke-width="1.3965" stroke-linecap="round" stroke-linejoin="round" stroke-miterlimit="10" d="
		M9.707,8.791"/>
	
		<path fill="none" stroke="#6498FF" stroke-width="1.3965" stroke-linecap="round" stroke-linejoin="round" stroke-miterlimit="10" d="
		M9.707,8.791C12.946,7.26,16.403,6.43,19.994,6.43c3.592,0,7.049,0.83,10.288,2.361"/>
</g>
<g>
	
		<path fill="none" stroke="#0000FF" stroke-width="1.3965" stroke-linecap="round" stroke-linejoin="bevel" stroke-miterlimit="10" d="
		M30.282,9.489"/>
	
		<path fill="none" stroke="#0000FF" stroke-width="1.3965" stroke-linecap="round" stroke-linejoin="bevel" stroke-miterlimit="10" d="
		M9.707,9.489"/>
	
		<path fill="none" stroke="#0000FF" stroke-width="1.3965" stroke-linecap="round" stroke-linejoin="bevel" stroke-miterlimit="10" d="
		M9.707,9.489c3.239-1.531,6.696-2.361,10.287-2.361c3.592,0,7.049,0.831,10.288,2.361"/>
</g>
<g>
	
		<path fill="none" stroke="#6498FF" stroke-width="1.3965" stroke-linecap="round" stroke-linejoin="round" stroke-miterlimit="10" d="
		M27.959,3.616"/>
	
		<path fill="none" stroke="#6498FF" stroke-width="1.3965" stroke-linecap="round" stroke-linejoin="round" stroke-miterlimit="10" d="
		M12.03,3.616"/>
	
		<path fill="none" stroke="#6498FF" stroke-width="1.3965" stroke-linecap="round" stroke-linejoin="round" stroke-miterlimit="10" d="
		M12.03,3.616c2.507-0.699,5.184-1.078,7.964-1.078c2.781,0,5.457,0.379,7.965,1.078"/>
</g>
<g>
	
		<path fill="none" stroke="#0000FF" stroke-width="1.3965" stroke-linecap="round" stroke-linejoin="bevel" stroke-miterlimit="10" d="
		M27.959,4.315"/>
	
		<path fill="none" stroke="#0000FF" stroke-width="1.3965" stroke-linecap="round" stroke-linejoin="bevel" stroke-miterlimit="10" d="
		M12.03,4.315"/>
	
		<path fill="none" stroke="#0000FF" stroke-width="1.3965" stroke-linecap="round" stroke-linejoin="bevel" stroke-miterlimit="10" d="
		M12.03,4.315c2.507-0.699,5.184-1.079,7.964-1.079c2.781,0,5.457,0.379,7.965,1.079"/>
</g>
<g>
	<defs>
		<path id="SVGID_1_" d="M19.882,14.916c-0.687,0-1.346,0.125-1.962,0.354c1.159,0.59,1.962,1.859,1.962,3.335
			c0,2.036-1.528,3.688-3.412,3.688c-1.055,0-1.998-0.519-2.625-1.332c-0.011,0.166-0.019,0.332-0.019,0.501
			c0,3.614,2.711,6.546,6.055,6.546c3.346,0,6.055-2.932,6.055-6.546C25.938,17.847,23.229,14.916,19.882,14.916z"/>
	</defs>
	<clipPath id="SVGID_2_">
		<use xlink:href="#SVGID_1_"  overflow="visible"/>
	</clipPath>
	
		<path clip-path="url(#SVGID_2_)" fill="none" stroke="#0000FF" stroke-width="1.3965" stroke-linecap="round" stroke-miterlimit="10" d="
		M30.292,18.672H13.117 M30.292,21.024H13.117 M30.292,23.377H13.117 M30.292,25.73H13.117 M30.292,28.082H13.117"/>
</g>
</svg>
