<?xml version="1.0" encoding="utf-8"?>
<!-- Generator: Adobe Illustrator 15.0.0, SVG Export Plug-In . SVG Version: 6.00 Build 0)  -->
<!DOCTYPE svg PUBLIC "-//W3C//DTD SVG 1.1//EN" "http://www.w3.org/Graphics/SVG/1.1/DTD/svg11.dtd">
<svg version="1.1" id="Layer_1" xmlns="http://www.w3.org/2000/svg" xmlns:xlink="http://www.w3.org/1999/xlink" x="0px" y="0px"
	 width="40px" height="40px" viewBox="0 0 40 40" enable-background="new 0 0 40 40" xml:space="preserve">
<path fill="#FFFFFF" d="M19.874,24.763c-5.937,0-11.762-2.063-16.357-5.827c5.473-4.482,27.241-4.482,32.715,0
	C31.636,22.699,25.812,24.763,19.874,24.763C13.848,24.763,25.899,24.763,19.874,24.763z"/>
<path fill="#010101" d="M19.764,14.281c-0.68,0-1.331,0.115-1.94,0.324c1.145,0.539,1.94,1.7,1.94,3.05
	c0,1.863-1.51,3.373-3.374,3.373c-1.043,0-1.976-0.473-2.594-1.217c-0.011,0.151-0.019,0.303-0.019,0.457
	c0,3.307,2.68,5.986,5.987,5.986s5.985-2.68,5.985-5.986C25.749,16.962,23.07,14.281,19.764,14.281z"/>
<path fill="#010101" d="M34.803,15.112C23.778,8.402,9.378,9.794,0.109,18.936c10.814,10.665,28.715,10.665,39.528,0
	C38.166,17.486,36.554,16.21,34.803,15.112C34.801,15.11,36.552,16.209,34.803,15.112z M19.874,24.763
	c-5.937,0-11.762-2.063-16.357-5.827c5.473-4.482,27.241-4.482,32.715,0C31.636,22.699,25.812,24.763,19.874,24.763
	C13.848,24.763,25.899,24.763,19.874,24.763z"/>
<g>
	<g>
		<path fill="none" stroke="#010101" stroke-width="12" stroke-linecap="round" stroke-linejoin="bevel" stroke-miterlimit="10" d="
			M7.227,28.496"/>
	</g>
	<g>
		<path fill="none" stroke="#010101" stroke-width="12" stroke-linecap="round" stroke-linejoin="bevel" stroke-miterlimit="10" d="
			M32.521,28.496"/>
	</g>
	<g>
		<path fill="#010101" d="M19.874,32.321c-4.473,0-8.881-0.936-13.104-2.78c-0.577-0.252-0.84-0.924-0.588-1.501
			c0.252-0.578,0.925-0.841,1.501-0.59c3.932,1.72,8.033,2.591,12.19,2.591s8.26-0.872,12.19-2.591
			c0.578-0.251,1.25,0.012,1.502,0.59c0.252,0.577-0.012,1.248-0.588,1.501C28.756,31.386,24.348,32.321,19.874,32.321z"/>
	</g>
</g>
<g>
	<g>
		<path fill="none" stroke="#010101" stroke-width="12" stroke-linecap="round" stroke-linejoin="bevel" stroke-miterlimit="10" d="
			M12,33.87"/>
	</g>
	<g>
		<path fill="none" stroke="#010101" stroke-width="12" stroke-linecap="round" stroke-linejoin="bevel" stroke-miterlimit="10" d="
			M27.746,33.87"/>
	</g>
	<g>
		<path fill="#010101" d="M19.874,35.998c-2.782,0-5.527-0.344-8.158-1.022c-0.609-0.157-0.977-0.78-0.819-1.39
			c0.157-0.609,0.779-0.977,1.388-0.82c2.446,0.632,4.999,0.951,7.588,0.951c2.59,0,5.144-0.319,7.588-0.951
			c0.609-0.156,1.233,0.21,1.39,0.82c0.157,0.609-0.21,1.231-0.819,1.39C25.4,35.654,22.656,35.998,19.874,35.998z"/>
	</g>
</g>
<g>
	<g>
		<path fill="none" stroke="#010101" stroke-width="12" stroke-linecap="round" stroke-linejoin="bevel" stroke-miterlimit="10" d="
			M30.043,9.317"/>
	</g>
	<g>
		<path fill="none" stroke="#010101" stroke-width="12" stroke-linecap="round" stroke-linejoin="bevel" stroke-miterlimit="10" d="
			M9.704,9.317"/>
	</g>
	<g>
		<path fill="#010101" d="M9.705,10.458c-0.439,0-0.858-0.255-1.046-0.684C8.407,9.197,8.67,8.525,9.248,8.272
			c3.423-1.496,6.999-2.254,10.626-2.254c3.628,0,7.203,0.758,10.625,2.254c0.577,0.252,0.841,0.925,0.588,1.502
			c-0.251,0.578-0.923,0.841-1.5,0.588c-3.134-1.369-6.402-2.063-9.713-2.063c-3.312,0-6.58,0.694-9.712,2.063
			C10.013,10.428,9.858,10.458,9.705,10.458z"/>
	</g>
</g>
<g>
	<g>
		<path fill="none" stroke="#010101" stroke-width="12" stroke-linecap="round" stroke-linejoin="bevel" stroke-miterlimit="10" d="
			M27.746,4.585"/>
	</g>
	<g>
		<path fill="none" stroke="#010101" stroke-width="12" stroke-linecap="round" stroke-linejoin="bevel" stroke-miterlimit="10" d="
			M12,4.585"/>
	</g>
	<g>
		<path fill="#010101" d="M27.747,5.727c-0.094,0-0.189-0.012-0.285-0.036C25.018,5.06,22.463,4.74,19.874,4.74
			c-2.59,0-5.143,0.319-7.588,0.951c-0.61,0.157-1.232-0.21-1.389-0.82c-0.157-0.61,0.21-1.232,0.82-1.389
			c2.631-0.679,5.376-1.022,8.157-1.022c2.782,0,5.527,0.344,8.159,1.022c0.609,0.157,0.976,0.779,0.819,1.389
			C28.718,5.385,28.255,5.727,27.747,5.727z"/>
	</g>
</g>
</svg>
