<?xml version="1.0" encoding="utf-8"?>
<!-- Generator: Adobe Illustrator 15.0.0, SVG Export Plug-In . SVG Version: 6.00 Build 0)  -->
<!DOCTYPE svg PUBLIC "-//W3C//DTD SVG 1.1//EN" "http://www.w3.org/Graphics/SVG/1.1/DTD/svg11.dtd">
<svg version="1.1" id="Layer_1" xmlns="http://www.w3.org/2000/svg" xmlns:xlink="http://www.w3.org/1999/xlink" x="0px" y="0px"
	 width="340.16px" height="340.16px" viewBox="0 0 340.16 340.16" enable-background="new 0 0 340.16 340.16" xml:space="preserve">
<path fill="#FFFFFF" d="M169.992,0.176C76.108,0.176,0,76.286,0,170.17s76.108,169.99,169.992,169.99
	c93.887,0,169.991-76.106,169.991-169.99S263.879,0.176,169.992,0.176z M161.93,188.65c0,20.989-4.793,35.366-16.656,47.229
	c-10.953,10.953-26.924,17.343-46.09,17.343c-30.574,0-48.143-12.323-59.78-29.666l34.91-29.433
	c6.16,8.672,12.091,13.917,20.762,13.917c8.898,0,14.83-7.3,14.83-18.48v-35.667h52.023V188.65z M161.93,135.481h-52.023V90.31
	h52.023V135.481z M280.736,135.486h-47.004v114.539h-53.389V135.486V90.31h100.393V135.486z"/>
</svg>
